<?xml version="1.0" encoding="UTF-8" standalone="no"?>
<!-- Created with Inkscape (http://www.inkscape.org/) -->

<svg
   xmlns:dc="http://purl.org/dc/elements/1.1/"
   xmlns:cc="http://creativecommons.org/ns#"
   xmlns:rdf="http://www.w3.org/1999/02/22-rdf-syntax-ns#"
   xmlns:svg="http://www.w3.org/2000/svg"
   xmlns="http://www.w3.org/2000/svg"
   xmlns:sodipodi="http://sodipodi.sourceforge.net/DTD/sodipodi-0.dtd"
   xmlns:inkscape="http://www.inkscape.org/namespaces/inkscape"
   width="4632.396"
   height="3841.4954"
   id="svg2"
   version="1.1"
   inkscape:version="0.48.4 r9939"
   sodipodi:docname="dove.svg"
   inkscape:export-filename="/home/faebser/workspace/sfb/svg/dove-dunkel.png"
   inkscape:export-xdpi="2.3428459"
   inkscape:export-ydpi="2.3428459">
  <defs
     id="defs4" />
  <sodipodi:namedview
     id="base"
     pagecolor="#ffffff"
     bordercolor="#666666"
     borderopacity="1.0"
     inkscape:pageopacity="0.0"
     inkscape:pageshadow="2"
     inkscape:zoom="0.12374369"
     inkscape:cx="1570.099"
     inkscape:cy="1828.0083"
     inkscape:document-units="px"
     inkscape:current-layer="layer1"
     showgrid="false"
     inkscape:window-width="1409"
     inkscape:window-height="841"
     inkscape:window-x="228"
     inkscape:window-y="74"
     inkscape:window-maximized="0"
     fit-margin-top="0"
     fit-margin-left="0"
     fit-margin-right="0"
     fit-margin-bottom="0" />
  <metadata
     id="metadata7">
    <rdf:RDF>
      <cc:Work
         rdf:about="">
        <dc:format>image/svg+xml</dc:format>
        <dc:type
           rdf:resource="http://purl.org/dc/dcmitype/StillImage" />
        <dc:title></dc:title>
      </cc:Work>
    </rdf:RDF>
  </metadata>
  <g
     inkscape:label="Layer 1"
     inkscape:groupmode="layer"
     id="layer1"
     transform="translate(2082.2863,1815.9237)">
    <path
       style="fill:#00407a;fill-opacity:1;stroke:#00407a;stroke-opacity:1"
       d="m -399.31597,2024.6335 c -72.7122,-19.1921 -50.2897,-125.8448 4.8551,-151.8295 19.4195,-68.0686 90.0571,-98.2886 107.1296,-165.1704 82.2657,-67.8232 -17.1322,98.5881 1.3925,55.9208 -38.4238,42.0649 -63.0373,97.3129 -111.3925,131.4799 -18.5249,47.1021 -13.7836,122.7268 57.2147,110.354 95.477,-12.8689 184.8905,-39.7549 266.285596,-87.207 104.0768,-52.9596 210.240704,-102.172 312.500004,-159.2111 91.2435,-67.559 189.4671,-124.9351 283.24999,-188.436 75.51871,-81.715 169.15135,-145.6696 246.7502,-227.2304 44.40518,-27.7767 58.67509,-82.171 104.99724,-107.75 31.7124,-61.0538 85.4523,-104.5225 112.7973,-165.4457 68.39304,-97.43201 112.95744,-212.54231 145.64994,-326.52591 35.3643,-215.6477 2.3297,-441.0587 -104.9114,-631.8289 -43.24304,-90.657397 -111.40834,-181.069397 -205.61498,-222.9405 -83.1561,-96.7193 -240.58445,163.384203 -176.7228,9.166 105.45031,-92.5065 253.79784,-20.6006 322.80474,80.495003 97.79574,129.232897 168.02454,281.587897 187.91114,443.329997 46.4053,213.2016 0,437.6793 -114.9111,619.73881 -18.879,38.9394 -48.74794,65.0802 -66.39894,103.6851 -22.1122,37.2756 -51.1941,57.9034 -69.3511,97.4173 -43.53876,1.8504 -97.84409,112.5332 -70.41674,83.1588 -71.64943,51.0185 -122.64806,126.1092 -195.2789,178.5 -44.05321,31.9492 -74.07229,72.0685 -117.8763,100.9341 -68.35709,38.3895 -126.08919,98.1902 -196.15149,129.576 -123.6248,99.8678 -274.900604,156.4874 -418.526604,221.8627 -59.064696,24.9053 -116.569196,36.9726 -176.749996,61.94 -41.7462,2.6116 -86.5341,8.0282 -129.2352,6.0169 z m -280.019,-141.5795 c -74.906,-25.3677 -4.3742,-102.1992 -1.0565,-154.75 36.7588,-96.1168 94.3567,-186.0798 151.0602,-272.5 45.8798,-56.6732 75.7567,-128.7418 136.5907,-172.9902 31.5544,-55.5234 79.0421,-98.585 123.4471,-142.9692 39.7131,-26.9686 108.465,-119.1148 19.2122,-71.5394 -48.5275,27.727 -135.2946,80.3229 -177.3992,20.7653 6.9914,-89.45861 54.5824,-179.28611 116.2656,-242.28861 19.9584,40.1818 -44.8875,85.7208 -54.6557,129.654 -27.9158,34.34841 -54.3601,132.02681 24.4808,104.48461 65.7337,-4.5436 121.5435,-73.2806 183.9742,-59.2226 -2.2725,45.6825 -50.454,82.0684 -80.6847,116.749 -55.0705,49.8802 -96.0654,106.8352 -146.675,159.3571 -87.4746,112.5774 -170.1847,226.4734 -226.5563,357.5 -43.0183,50.9201 -56.2378,122.2733 -73.1937,180.2902 28.7189,42.8535 165.0547,-38.302 123.4859,-37.7624 126.0931,-95.9694 269.1872,-190.8026 391.7078,-281.793 67.4481,-35.4725 123.860296,-100.2187 197.558996,-117.1984 16.8229,41.8647 -58.8756,46.7073 -75.3404,84.4141 -53.600696,59.483 -119.154096,109.334 -151.970196,184.4974 -36.3957,-19.8045 19.7535,-71.2612 38.1223,-97.3563 66.943196,-76.9149 -101.5973,64.5482 -74.3709,34.4842 -109.0536,62.8178 -203.2493,149.8969 -307.1579,217.0173 -44.6141,20.6948 -83.3205,57.0119 -136.8453,61.1569 z m -520.16893,-252.9588 c -64.4938,-95.432 -21.6023,-218.0492 -8.2225,-326.2801 17.2121,-23.5581 74.4905,-140.4552 15.8214,-98.0111 -7.5436,25.0482 -55.574,65.6722 -37.5058,8 23.8559,-37.3604 60.561,-59.1624 91.3295,-90.25 44.0842,15.481 -18.2987,161.0701 -8.8409,123.8828 -46.5429,105.6864 -90.4024,234.0238 -42.4091,341.8977 28.4093,20.4381 18.7954,39.4787 -10.1726,40.7607 z m 56.3158,-8.7841 c -27.1565,-39.3376 65.6769,-43.3794 84.6953,-63.9252 147.38713,-110.8009 277.61443,-255.9477 385.63913,-408.5819 64.8012,-90.2444 111.1343,-193.26391 178.5224,-281.85511 43.3783,-24.09 -27.2092,96.9684 -18.9062,75.8551 -110.4386,207.76941 -259.8356,391.91581 -433.1154,550.80671 -73.49173,80.8012 -173.92273,125.5643 -155.72843,108.2143 -9.1323,12.1324 -24.5,25.5236 -41.1068,19.4861 z m -344.1432,-169.7048 c -90.699,-17.8411 -70.0929,-77.8065 -35.5043,-140.7878 48.1391,-102.9124 121.1753,-199.0866 100.831,-177.1585 -2.1187,-46.6257 52.1209,-58.2336 68.9864,-61.7208 -51.371,65.0815 -85.1187,137.3632 -124.1915,211.8648 -12.463,45.0675 -90.0541,140.5844 0.3787,140.4798 43.8254,-22.6808 82.4155,-51.4637 116.0453,-86.0796 126.3066,7.182 -367.2436,245.3338 -109.5453,110.0163 l -1.25,0.3059 -15.75,3.0799 z m 157.5,-113.5155 c -7.4133,-32.2774 116.3447,-98.0881 76.9148,-92.8688 -24.5523,14.7942 -33.1753,89.8428 -76.9148,92.8688 z m -422,-190.2439 c -92.2989,-15.9691 -111.6645,-136.8998 -53.5587,-197.04291 24.6884,-51.0784 68.651,-104.4656 109.4042,-151 38.6772,-31.0871 84.6227,-62.5022 109.2145,-105.6188 -86.0924,-9.2271 -200.9837,58.1472 -292.3736,7.9463 -84.9458,-17.714 -143.4251,-90.3558 -159.6592,-173.3275 1.5081,-42.7174 -85.1158,-144.2968 -16.5267,-156.0209 202.6807,98.7328 441.3956,47.6978 654,11.1426 199.0779,-47.7233 402.75903,-82.3924 593.50003,-153.6398 143.6032,-39.0412 279.7116,-99.468 410,-172.133097 78.8605,-49.4642998 175.8365,-117.9222 139.0088,-97.7799 49.4134,-33.6891 80.4367,-88.215903 131.4912,-120.386203 44.610996,-75.3817 103.166596,-145.2005 134.4463958,-228.0716 48.1133002,-3.3942 -92.2997998,216.8122 -53.9005998,145.1844 -76.681496,106.6682 -163.066196,218.178603 -284.172796,275.160403 -106.5131,97.994297 -246.7106,142.956197 -380.373,193.062397 -153.9973,58.0227 -316.24493,103.1653 -478.75003,138.9675 -218.7973,51.8049 -445.6224,109.1918 -674.75,99.0333 -62.1902,11.6795 -231.3231,-19.4378 -181.5,-40.312 28.939,88.9287 51.7189,196.7658 149,241.6532 98.0318,82.6646 382.3693,139.6366 345.3865,45.5495 -88.678,77.3479 -180.0687,159.6423 -235.4457,266.758 -39.7848,46.44411 -24.718,135.33831 46.2509,140.72121 79.5977,12.6284 176.4888,-53.8329 211.816,-37.4798 -68.6677,35.9067 -141.6692,72.6147 -222.5082,67.6337 z m 2790.0658,-33.9704 c 63.2927,-45.178 150.3396,-69.592 209.0156,-131.07251 96.6453,-68.1085 170.6104,-158.4415 245.9187,-248 92.3135,-118.2218 192.6186,-234.2393 267.5,-365 71.3794,-111.1635 118.6202,-234.3865 162.2657,-358.949997 38.1553,-136.172103 45.4702,-284.460903 72.1154,-425.009703 37.3198,-149.9793 34.1973,-312.8277 79.4774,-458.8056 26.8037,-47.6896 52.894,-94.9803 98.1565,-128.31549 58.6658,-67.4029 -160.6038,-19.6299 0.7211,-59.9258 49.4771,-10.8623 264.5505,-62.0502 169.3879,9.4434 -34.7911,26.741 -78.2612,-8.8983 -104.9576,32.7757 -42.8752,45.83689 -102.4575,85.14029 -125.1696,149.97809 -44.0814,37.4723 -7.9086,107.1353 -43.6304,149.309 -14.1689,109.916 -4.3895,225.3998 -45.0956,329.6486 -23.17,202.1516 -55.356,405.538503 -141.2013,592.8514 -33.6563,92.0932 -92.4182,172.0671 -142.3135,257.1878 -46.4966,72.719 -100.8248,137.8722 -154.3107,204.9632 -12.5209,47.0943 -63.8955,63.1188 -79.4459,109.3748 -74.6937,85.8037 -153.4327,172.5936 -246.4445,240.19011 -63.048,49.7824 -141.6188,93.5897 -221.9892,99.357 z m -2535.5735,-52.3994 c 98.798,-94.67141 83.5065,-58.1939 161.0077,-118.68451 42.2712,-36.6472 92.9037,-58.0495 129.9657,-97.4731 20.8865,59.5122 -69.6866,106.2424 -70.1296,109.2536 -20.2085,23.0696 -16.658,87.74281 -58.9411,73.53141 15.5943,-48.27531 16.9188,-91.90471 -43.3036,-36.30051 -39.0845,22.54451 -72.6016,61.36811 -118.5991,69.67311 z M -294.85027,841.77319 c 4.7248,-82.4129 119.2504,-114.0592 31.769,-21.1639 -9.1577,7.9941 -18.1212,22.6604 -31.769,21.1639 z m 71.126,-98.551 c 47.858,-62.3209 68.0726,-79.0025 -3.6555,-137.339 44.283,-117.1091 112.6492,-107.0561 29.0695,-4.0792 29.6175,23.2348 132.730696,31.0584 33.2754,99.7194 -27.9465,4.0036 -27.7533,44.8431 -58.6894,41.6988 z m -1739.10703,-80.4182 c 1.2094,-3.6561 2.4663,3.5623 0,0 z m 3513.5001,-1.559 c 1.1563,-3.5185 2.6705,3.277 0,0 z m -3104.2501,-220.1033 c 5.5068,-1.6231 0.9994,1.7503 0,0 z M -884.33127,90.717193 c -110.9996,2.7773 -236.89953,-32.5095 -284.63013,-141.1632 -27.7348,-95.486803 80.0148,-164.991103 64.0232,-252.838703 -67.9511,-42.6341 -161.4203,-20.5743 -235.3931,-42.4003 -81.626,-5.1338 -175.9535,-82.3287 -141,-169.4321 21.7516,-32.5456 63.8643,-59.1025 69.7847,-93.6294 -121.7204,-15.4249 -263.5269,37.6288 -380.7388,-19.4496 -38.7357,-23.0264 -50.7508,-74.4135 -8.1529,-94 128.3801,-99.8898 288.3738,-162.3176 436.8909,-216.0246 29.1505,-23.6609 71.2131,-107.55419 112.7037,-74.73189 -175.022,-34.2717 -375.9456,-13.233 -532.6802,-102.2608 -49.9989,-28.0732 -69.1903,-96.8676 -3.8067,-121.9822 94.1691,-60.6144 208.3386,-85.4679 315.9977,-115.0262 123.1028,5.7193 38.9654,-49.6156 -21.4984,-60.701 -130.3641,-44.1256 -273.9658,-72.8503 -380.5,-163.273 -36.6823,-32.2879 -43.5811,-83.8004 8,-103.0505 100.9196,-35.3988 217.6119,-51.1964 321.372,-43.4684 -100.2391,35.7626 -227.1965,23.3009 -325.622,81.5446 -5.8766,47.4068 60.4696,70.5709 94.5,94.5047 146.5012,82.4197 315.0255,113.7643 470.75,160.5009 9.2905,82.3295 -268.5708,114.7553 -211.4006,71.926 -97.2721,21.077 -194.1028,56.7548 -272.746,117.6917 -15.2581,74.9127 87.905,85.0883 139.4728,107.2597 143.069,29.6861 291.6815,24.5707 432.6738,60.596 54.8352,43.11439 -118.4713,109.72439 -84.5998,90.49559 -136.951,53.9103 -281.8965,115.9976 -410.657,191.7444 -39.1699,13.4416 -124.0835,81.9412 -47.5765,99.1078 124.5153,43.7609 274.1296,-22.2312 389.8357,27.6565 -8.5876,53.8761 -67.7786,70.0058 -86.0024,121.3689 -20.9828,87.172 92.3832,137.3564 164.0482,134.9638 67.3518,13.798 213.5542,-17.8799 223.6236,84.1586 -9.2886,79.6915 -90.9954,149.8842 -58.1718,235.103303 55.7301,125.66 230.61703,108.0582 342.29083,99.8256 151.1695,-7.1355 292.5926,-57.8673998 441.5801,-76.1951 -70.3723,45.7653 -211.4576,65.3654 -213.2229,63.2662 -106.0294,29.5842 -218.4519,48.1699 -329.148,47.9127 z m 1525.49999,-70.3248 c -30.96415,-34.072 11.8241,-57.3385 0,0 z m -29.5557,-419.882603 c -21.65924,-49.9185 69.0376,11.6157 0,0 z m -585.051494,-14.335 c 5.137,-52.9156 41.2615,0.9392 0,0 z m 632.357194,-6.9003 c 39.71309,-42.0873 120.19958,-61.9512 171.3132,-101.8771 100.99314,-50.602 203.56258,-112.3755 280.43688,-194.093 -149.97764,-141.8497 -326.5612,-252.8279 -499.00008,-365.99349 -139.47109,-80.7688 -284.68229,-157.5147 -427.34499,-227.5069 -118.237204,-56.5004 -235.762704,-120.4759 -359.655,-164.5 -101.4127,-51.1624 -220.5204,-71.5874 -320.2369,-125.044 -80.6875,-8.2595 -157.7455,-48.4327 -242.2631,-50.3452 -104.1516,-33.7985 -217.25,-39.1453 -321.91763,-59.2095 46.6927,-47.5874 349.27473,12.0754 268.14873,15.0829 122.5673,34.7051 249.9257,48.8663 366.7675,99.1732 149.6823,39.6211 296.0651,113.3665 442.251396,169.551 102.921404,50.9545 207.828004,100.0979 306.255204,156.7927 159.0546,75.2269 307.13649,168.1369 453.49479,262.4741 122.34444,80.32819 234.87518,171.95309 347.33338,264.25829 63.0941,-17.7591 90.0853,-96.5107 135.6667,-141.051 44.4095,-89.6677 114.7451,-159.61079 179.3664,-231.76489 120.0411,-109.2415 291.2136,-147.1438 448.3552,-101.515 86.3638,15.6334 166.0079,47.8822 251.7784,62.5999 38.0836,23.0442 92.8735,19.1398 121.5956,50.9605 -27.5978,26.4875 -89.3559,-23.8389 -131.701,-25.9628 -86.934,-42.8192 -183.1187,-44.2574 -277.3946,-65.4348 -125.339,-23.4865 -263.023,-15.8453 -361.25,72.7371 -84.4033,58.7595 -143.6494,146.78119 -194.25,234.13839 -37.3036,60.1182 -81.0203,115.3733 -134.3029,161.7482 -7.4023,47.3766 87.7763,158.9244 77.8575,112.02 28.7005,20.5349 119.7091,140.4969 35.2056,48.6602 -45.443,-43.2365 -194.0842,-160.452 -140.6033,-128.2649 -137.60414,108.2146 -289.68912,202.8691 -453.15658,270.9614 l -14.75,2.4082 -8,-1.0029 z m 693.25008,-6.0431 c -39.6713,-60.1361 53.2615,-31.5207 0,0 z m -17.5247,-61.1528 c -41.7157,-67.198 43.4017,26.7763 0,0 z m 723.1036,-55.8579 c 1.4434,-2.6633 0.4459,4.3116 0,0 z m 188.9211,-123.4082 c -16.6192,-31.8867 -39.2236,-268.5261 -3.1584,-143.5085 14.6961,41.4745 17.0577,104.9078 3.1584,143.5085 z m -28,-210.0675 c -53.3301,-45.4043 10.8446,-91.4106 0,0 z m -338,-88.6768 c -53.6547,-2.1217 -130.2189,-50.24259 -69.0593,-98.26419 45.9965,-57.1655 123.229,-5.2037 115.7153,56.7659 14.2386,28.70089 -22.2325,55.34709 -46.656,41.49829 z m 13.929,-30.5142 c 33.3541,-37.89639 -43.0414,-100.34699 -62.3853,-41.26999 -21.8309,49.91419 61.3568,-32.3296 62.3853,41.26999 z m -3163.1166,14.5669 c 4.3835,-1.4325 0.4334,1.9254 0,0 z M 2310.9188,-1260.186 c -21.54,-39.4545 44.2831,-105.8425 84.5716,-76.0392 135.1503,-57.9518 48.3344,48.0324 -36.3216,41.0292 -18.6427,7.1067 -26.3059,38.2727 -48.25,35.01 z m -66.8343,-21.8266 c -54.1339,-46.132 -90.9349,-111.6862 -126.4157,-171.6834 -43.1195,-48.3155 -74.972,-111.4779 -92.9957,-172.2497 44.2525,-30.424 64.3556,62.6937 90.9957,82.7974 12.562,41.7471 65.178,35.9227 75.2814,78.8363 22.4943,23.3119 50.447,-29.6584 63.5056,10.116 12.7538,16.1187 21.3192,60.8774 41.463,28.973 62.0896,-54.451 -21.7639,78.2213 -5.1178,52.1937 -2.8133,116.8834 -18.1011,83.7522 -29.0175,2.8333 0.9811,-35.6399 4.3625,31.4751 -12.2872,-3.0581 -16.5039,27.368 28.1423,82.9239 -5.4118,91.2415 z m 181.3537,-132.0168 c -69.6356,-7.3056 -62.6984,-28.3719 -8.7694,-54.6666 53.2335,19.5634 88.485,-135.8369 81.0356,-39.5 -46.3,25.7878 -42.1603,60.4106 4.9644,80.815 -30.8542,-47.8536 -45.9599,26.3018 -77.2306,13.3516 z m -69.5808,-56.2056 c 3.623,-27.401 36.1641,7.7759 0,0 z m -74.0985,-2.8345 c -27.357,-46.3435 -21.5695,-97.9283 21.0061,-133.3252 7.747,-42.3351 55.8505,-91.8167 10.9452,-128.2525 -8.7921,-57.4057 74.8634,-139.8739 50.4719,-17.0488 -6.4269,151.0486 10.898,150.3312 -27.995,207.5 -78.3857,-14.9757 0.078,66.4757 -54.4282,71.1265 z m 114.46,-32.288 c 8.804,-52.3481 49.1201,-2.7817 0,0 z m 57.0577,-54.136 c 0.4899,-61.4208 70.32,-43.8857 0,0 z m 58.6908,-15.5179 c -6.2597,-13.844 7.8619,-14.7954 0,0 z m -246.7986,-15.1846 c -14.2946,-36.3272 55.2955,-157.0259 37.3189,-126.9566 5.0593,46.3586 -31.4044,87.0812 -37.3189,126.9566 z m 228.423,-28.6262 c -1.5823,-50.2764 84.1212,-114.8616 46.4299,-29.0601 -1.6809,30.5817 -18.0144,35.9314 -46.4299,29.0601 z m -3593.6383,-87.6238 c -203.2566,-18.5248 110.97233,-33.0475 0,0 z m -411.2848,-7.9655 c 16.5865,-34.4719 113.9475,-0.7806 0,0 z m 255.6567,-1.2728 c -45.804,-59.6846 88.7954,10.7319 0,0 z m -63.1567,-1.0408 c -125.3297,-13.6802 94.4753,-34.8394 0,0 z m 127.1958,-2.0478 c -11.4242,-44.2617 51.678,11.3367 0,0 z m -215.3875,0.5673 c -23.3222,-46.6028 44.0074,-2.4659 0,0 z"
       id="path3050"
       inkscape:connector-curvature="0"
       sodipodi:nodetypes="ccccccccccccccccccccccccccccccccccccccccccccccccccccccccccccccccccccccccccccccccccccccccccccccccccccccccccccccccccccccccccccccccccccccccccccccccccccccccccccccccccccccccccccccccccccccccccccccccccccccccccccccccccccccccccccccccccccccccccccccccccccccccccccccccccccccccccccccccccccccccccccccccccccccc"
       inkscape:export-filename="/home/faebser/workspace/sfb/svg/dove-hell.png"
       inkscape:export-xdpi="2.3399999"
       inkscape:export-ydpi="2.3399999" />
  </g>
</svg>
